<?xml version="1.0" standalone="no"?>
<!DOCTYPE svg PUBLIC "-//W3C//DTD SVG 20010904//EN"
 "http://www.w3.org/TR/2001/REC-SVG-20010904/DTD/svg10.dtd">
<svg version="1.0" xmlns="http://www.w3.org/2000/svg"
 width="1280.000000pt" height="1280.000000pt" viewBox="0 0 1280.000000 1280.000000"
 preserveAspectRatio="xMidYMid meet">
<metadata>
Created by potrace 1.14, written by Peter Selinger 2001-2017
</metadata>
<g transform="translate(0.000000,1280.000000) scale(0.100000,-0.100000)"
fill="#000000" stroke="none">
<path d="M6119 10965 c-3 -2 -45 -7 -94 -10 -50 -3 -101 -7 -115 -10 -14 -2
-54 -7 -90 -11 -75 -8 -97 -11 -125 -17 -11 -3 -40 -8 -65 -11 -39 -5 -197
-38 -255 -52 -11 -2 -38 -9 -60 -14 -195 -42 -561 -167 -770 -262 -234 -106
-547 -281 -724 -404 -46 -33 -102 -72 -125 -88 -209 -146 -576 -483 -735 -676
-30 -36 -57 -67 -60 -70 -6 -5 -88 -108 -156 -195 -17 -22 -56 -76 -86 -120
-30 -44 -57 -82 -60 -85 -9 -6 -165 -266 -209 -345 -207 -376 -358 -785 -459
-1240 -11 -49 -22 -106 -26 -125 -3 -19 -7 -46 -10 -60 -4 -23 -11 -61 -20
-120 -2 -14 -6 -47 -10 -75 -3 -27 -9 -81 -14 -120 -5 -38 -8 -85 -7 -102 1
-18 -2 -33 -5 -33 -8 0 -4 -634 4 -700 3 -25 9 -74 12 -110 3 -36 8 -72 10
-80 2 -8 7 -37 10 -65 3 -27 9 -75 15 -105 5 -30 11 -66 14 -80 9 -52 38 -187
51 -240 8 -30 16 -66 19 -80 2 -14 17 -65 31 -115 15 -49 28 -94 29 -100 6
-30 60 -181 67 -189 5 -6 9 -18 9 -27 0 -17 89 -238 135 -336 14 -28 25 -56
25 -62 0 -5 3 -11 8 -13 4 -1 22 -34 40 -73 28 -58 135 -251 202 -364 20 -33
113 -174 120 -181 3 -3 21 -27 40 -55 39 -56 188 -249 216 -280 11 -11 37 -43
59 -70 39 -49 320 -334 400 -406 22 -20 79 -67 126 -106 48 -38 93 -75 100
-82 35 -29 99 -77 154 -114 33 -22 62 -43 65 -47 8 -11 217 -142 330 -207 121
-70 348 -184 423 -214 28 -11 74 -31 101 -44 28 -13 123 -49 211 -80 150 -53
192 -66 370 -115 76 -21 284 -68 331 -75 16 -2 38 -6 49 -8 11 -3 40 -8 65
-11 25 -3 54 -8 65 -10 11 -2 45 -7 76 -10 31 -4 66 -8 77 -11 141 -27 859
-27 1001 0 9 1 37 6 64 9 26 3 68 9 95 12 26 3 54 7 62 9 8 1 35 6 60 10 231
38 542 121 790 212 407 149 827 376 1174 636 38 28 188 148 202 162 6 5 38 33
70 60 113 96 399 388 479 489 17 21 37 46 46 55 43 45 283 381 346 486 7 11
30 49 51 85 64 105 166 301 221 421 72 162 228 579 215 579 -2 0 0 8 5 19 14
25 86 307 105 411 9 47 18 94 20 106 2 12 7 45 11 74 4 29 8 61 10 70 6 29 18
134 32 275 9 94 9 650 0 745 -4 36 -9 83 -11 105 -3 22 -8 58 -10 80 -16 125
-18 141 -41 265 -30 160 -75 349 -110 460 -10 30 -18 60 -20 65 -1 6 -4 17 -7
25 -3 8 -24 69 -47 135 -23 66 -46 129 -51 140 -5 11 -28 67 -51 125 -63 155
-249 521 -284 560 -8 9 -15 20 -15 23 0 8 -137 225 -150 237 -3 3 -21 28 -40
55 -35 51 -205 271 -224 291 -6 6 -33 38 -61 70 -62 74 -339 351 -422 423
-533 457 -1085 757 -1768 960 -65 19 -307 77 -365 87 -66 12 -137 25 -159 29
-24 4 -210 28 -321 40 -64 7 -675 16 -681 10z"/>
</g>
</svg>
