<svg data-v-423bf9ae="" xmlns="http://www.w3.org/2000/svg" viewBox="0 0 287 90" class="iconLeft"><!----><!----><!----><g data-v-423bf9ae="" id="352bc748-5794-4ee6-9534-7aee832be0b0" fill="black" transform="matrix(6.543075190927261,0,0,6.543075190927261,150.25219509754803,6.297708880803391)"><path d="M3.09 2.04L0.67 2.04L0.67 1.33L6.30 1.33L6.30 2.04L3.86 2.04L3.86 10.50L3.09 10.50L3.09 2.04ZM13.29 10.50L12.52 10.50L12.52 9.06L8.53 2.79L8.48 2.79L8.48 10.50L7.71 10.50L7.71 1.33L8.47 1.33L12.47 7.67L12.52 7.67L12.52 1.33L13.29 1.33L13.29 10.50ZM15.05 10.50L14.24 10.50L16.87 1.33L18.21 1.33L20.75 10.50L19.92 10.50L19.35 8.39L15.64 8.39L15.05 10.50ZM15.83 7.69L19.17 7.69L17.65 2.03L17.42 2.03L15.83 7.69Z"></path></g><!----><g data-v-423bf9ae="" id="474df771-aee5-471a-a499-7d9e853f5ef1" transform="matrix(1.346378382672281,0,0,1.346378382672281,0.6817143467024493,0)" stroke="none" fill="black"><path d="M83.175 25.884c.597 2.327.511 4.935.331 7.584 8.77 5.6 10.276 8.98 10.213 9.534-.013.02-1.678 2.005-11.28 1.303a75.363 75.363 0 0 1-3.88-.392 33.254 33.254 0 0 0 1.695-10.489C80.254 14.993 65.26 0 46.829 0 32.708 0 20.612 8.807 15.724 21.213c-8.06-5.29-9.491-8.485-9.431-9.023.013-.021 1.417-2.143 11.008-1.444 1.285-2.369 3.343-4.278 5.468-5.786-1.348-.16-3.309-.243-4.732-.347C7.714 3.858 1.936 5.644.372 10.075c-1.67 4.73 2.283 10.134 12.085 16.525.473.308.985.616 1.479.925a33.432 33.432 0 0 0-.532 5.898c0 18.43 14.994 33.423 33.425 33.423 12.443 0 23.313-6.84 29.066-16.952 2.139.312 4.178.544 6.083.685 10.321.753 16.098-1.031 17.662-5.464 2.174-6.149-5.789-13.115-16.465-19.231zM46.829 60.377c-14.864 0-26.956-12.089-26.956-26.954 0-.809.042-1.608.113-2.399 6.032 3.25 13.04 6.419 20.591 9.274.203-2.183.975-4.2 2.167-5.905-7.947-3.009-15.278-6.372-21.383-9.786 3.662-10.545 13.691-18.14 25.467-18.14 14.862 0 26.956 12.092 26.956 26.955 0 3.325-.609 6.508-1.714 9.45-2.212-.42-4.51-.918-6.875-1.49l.002.059c0 2.189-.579 4.243-1.585 6.029 1.847.447 3.655.849 5.421 1.21-4.864 7.06-13.002 11.697-22.204 11.697z"></path><circle cx="52.67" cy="41.599" r="8.356"></circle></g><!----></svg>