<svg width="64" height="64" xmlns="http://www.w3.org/2000/svg">
 <defs>
  <linearGradient spreadMethod="reflect" y2="1.1247" y1="-0.2866" x2="0.5" x1="0.5" id="7Ic~m4Cy8w69I2zyki0fbc">
   <stop stop-color="#a4a4a4" offset="0"/>
   <stop stop-color="#8d8d8d" offset="0.409"/>
   <stop stop-color="#6f6f6f" offset="1"/>
   <stop stop-color="#6f6f6f" offset="1"/>
  </linearGradient>
  <linearGradient spreadMethod="reflect" y2="-0.3685" y1="1.8025" x2="0.5" x1="0.5" id="7Ic~m4Cy8w69I2zyki0fbd">
   <stop stop-color="#feaa53" offset="0"/>
   <stop stop-color="#ffcd49" offset="0.612"/>
   <stop stop-color="#ffde44" offset="1"/>
  </linearGradient>
  <linearGradient spreadMethod="reflect" y2="2.225" y1="0.14325" x2="0.5" x1="0.5" id="7Ic~m4Cy8w69I2zyki0fbe">
   <stop stop-color="#42d778" offset="0"/>
   <stop stop-color="#3dca76" offset="0.428"/>
   <stop stop-color="#34b171" offset="1"/>
  </linearGradient>
 </defs>
 <g>
  <title>background</title>
  <rect fill="none" id="canvas_background" height="402" width="582" y="-1" x="-1"/>
 </g>
 <g>
  <title>Layer 1</title>
  <path id="svg_2" d="m51,12l-37,0c-2.209,0 -4,1.791 -4,4l0,36c0,2.209 1.791,4 4,4l37,0c2.209,0 4,-1.791 4,-4l0,-36c0,-2.209 -1.791,-4 -4,-4z" fill="#8de8b7"/>
  <path id="svg_3" d="m10,16l0,6l45,0l0,-6c0,-2.209 -1.791,-4 -4,-4l-37,0c-2.209,0 -4,1.791 -4,4z" fill="url(#7Ic~m4Cy8w69I2zyki0fbc)"/>
  <path id="svg_4" d="m30,19l19,0c1.1,0 2,-0.9 2,-2l0,0c0,-1.1 -0.9,-2 -2,-2l-19,0c-1.1,0 -2,0.9 -2,2l0,0c0,1.1 0.9,2 2,2z" fill="#f1fcff"/>
  <path id="svg_5" d="m16,19l0,0c1.1,0 2,-0.9 2,-2l0,0c0,-1.1 -0.9,-2 -2,-2l0,0c-1.1,0 -2,0.9 -2,2l0,0c0,1.1 0.9,2 2,2z" fill="url(#7Ic~m4Cy8w69I2zyki0fbd)"/>
  <path id="svg_6" d="m23,19l0,0c1.1,0 2,-0.9 2,-2l0,0c0,-1.1 -0.9,-2 -2,-2l0,0c-1.1,0 -2,0.9 -2,2l0,0c0,1.1 0.9,2 2,2z" fill="url(#7Ic~m4Cy8w69I2zyki0fbe)"/>
  <path id="svg_7" d="m15.5,25.53271l18,0c0.828,0 1.5,0.672 1.5,1.5l0,11c0,0.828 -0.672,1.5 -1.5,1.5l-18,0c-0.828,0 -1.5,-0.672 -1.5,-1.5l0,-11c0,-0.828 0.672,-1.5 1.5,-1.5zm0,26l18,0c0.828,0 1.5,-0.672 1.5,-1.5l0,-5c0,-0.828 -0.672,-1.5 -1.5,-1.5l-18,0c-0.828,0 -1.5,0.672 -1.5,1.5l0,5c0,0.828 0.672,1.5 1.5,1.5zm25,0l9,0c0.828,0 1.5,-0.672 1.5,-1.5l0,-23c0,-0.828 -0.672,-1.5 -1.5,-1.5l-9,0c-0.828,0 -1.5,0.672 -1.5,1.5l0,23c0,0.828 0.672,1.5 1.5,1.5z" fill="#79b7f2"/>
 </g>
</svg>