<svg width="300" height="300" xmlns="http://www.w3.org/2000/svg" class="icon">
 <!---->
 <defs>
  <!---->
  <linearGradient y2="0%" x2="100%" y1="0%" x1="0%" id="c43fb2a2-73d0-4579-99ad-a4bdf8a33d6e" gradientTransform="rotate(25)">
   <stop stop-color="#E90DCA" offset="0%"/>
   <stop stop-color="#1536F1" offset="100%"/>
  </linearGradient>
 </defs>
 <!---->

 <!---->
 <g>
  <title>background</title>
  <rect fill="none" id="canvas_background" height="402" width="582" y="-1" x="-1"/>
 </g>
 <g>
  <title>Layer 1</title>
  <rect id="svg_1" class="logo-background-square" height="300px" width="300px" y="0" x="0" fill="transparent"/>
  <g opacity="0.4" transform="matrix(2.2000292057099755,0,0,2.2000292057099755,39.99834740948291,76.4684315114657) " fill="url(#c43fb2a2-73d0-4579-99ad-a4bdf8a33d6e)" id="73d21b33-fee4-4654-8077-f53f6539d58f">
   <path id="svg_2" d="m83.175,25.884c0.597,2.327 0.511,4.935 0.331,7.584c8.77,5.6 10.276,8.98 10.213,9.534c-0.013,0.02 -1.678,2.005 -11.28,1.303a75.363,75.363 0 0 1 -3.88,-0.392a33.254,33.254 0 0 0 1.695,-10.489c0,-18.431 -14.994,-33.424 -33.425,-33.424c-14.121,0 -26.217,8.807 -31.105,21.213c-8.06,-5.29 -9.491,-8.485 -9.431,-9.023c0.013,-0.021 1.417,-2.143 11.008,-1.444c1.285,-2.369 3.343,-4.278 5.468,-5.786c-1.348,-0.16 -3.309,-0.243 -4.732,-0.347c-10.323,-0.755 -16.101,1.031 -17.665,5.462c-1.67,4.73 2.283,10.134 12.085,16.525c0.473,0.308 0.985,0.616 1.479,0.925a33.432,33.432 0 0 0 -0.532,5.898c0,18.43 14.994,33.423 33.425,33.423c12.443,0 23.313,-6.84 29.066,-16.952c2.139,0.312 4.178,0.544 6.083,0.685c10.321,0.753 16.098,-1.031 17.662,-5.464c2.174,-6.149 -5.789,-13.115 -16.465,-19.231zm-36.346,34.493c-14.864,0 -26.956,-12.089 -26.956,-26.954c0,-0.809 0.042,-1.608 0.113,-2.399c6.032,3.25 13.04,6.419 20.591,9.274c0.203,-2.183 0.975,-4.2 2.167,-5.905c-7.947,-3.009 -15.278,-6.372 -21.383,-9.786c3.662,-10.545 13.691,-18.14 25.467,-18.14c14.862,0 26.956,12.092 26.956,26.955c0,3.325 -0.609,6.508 -1.714,9.45c-2.212,-0.42 -4.51,-0.918 -6.875,-1.49l0.002,0.059c0,2.189 -0.579,4.243 -1.585,6.029c1.847,0.447 3.655,0.849 5.421,1.21c-4.864,7.06 -13.002,11.697 -22.204,11.697z"/>
   <circle id="svg_3" r="8.356" cy="41.599" cx="52.67"/>
  </g>
 </g>
</svg>