<?xml version="1.0" standalone="no"?><svg xmlns="http://www.w3.org/2000/svg" viewBox="0 0 1440 320"><path fill="#0099ff" fill-opacity="1" d="M0,192L24,165.3C48,139,96,85,144,90.7C192,96,240,160,288,170.7C336,181,384,139,432,133.3C480,128,528,160,576,192C624,224,672,256,720,266.7C768,277,816,267,864,250.7C912,235,960,213,1008,197.3C1056,181,1104,171,1152,176C1200,181,1248,203,1296,192C1344,181,1392,139,1416,117.3L1440,96L1440,320L1416,320C1392,320,1344,320,1296,320C1248,320,1200,320,1152,320C1104,320,1056,320,1008,320C960,320,912,320,864,320C816,320,768,320,720,320C672,320,624,320,576,320C528,320,480,320,432,320C384,320,336,320,288,320C240,320,192,320,144,320C96,320,48,320,24,320L0,320Z"></path></svg>